<?xml version="1.0" encoding="UTF-8"?>
<svg width="450px" height="451px" viewBox="0 0 450 451" version="1.1" xmlns="http://www.w3.org/2000/svg" xmlns:xlink="http://www.w3.org/1999/xlink">
    <!-- Generator: Sketch 63.1 (92452) - https://sketch.com -->
    <title>Group 60</title>
    <desc>Created with Sketch.</desc>
    <defs>
        <polygon id="path-1" points="-0.0027 0.4874 406 0.4874 406 246.2324 -0.0027 246.2324"></polygon>
    </defs>
    <g id="Rework-V2" stroke="none" stroke-width="1" fill="none" fill-rule="evenodd">
        <g id="HP_V1_Desk_1920-UI" transform="translate(-1276.000000, -9509.000000)">
            <g id="Group-60" transform="translate(1276.000000, 9508.000000)">
                <g id="Group-3" transform="translate(44.000000, 0.513000)">
                    <mask id="mask-2" fill="white">
                        <use xlink:href="#path-1"></use>
                    </mask>
                    <g id="Clip-2"></g>
                    <path d="M358.7173,233.4234 C359.5693,227.9144 360.2563,222.3694 360.7783,216.7924 C368.0623,218.3034 375.3353,219.9064 382.5943,221.6024 L358.7173,233.4234 Z M348.7303,125.3884 C309.9453,117.4224 270.8023,112.2444 231.5513,109.8524 C240.2033,99.7144 245.5233,87.3614 246.9583,74.1424 C281.3263,77.5074 315.3623,83.4984 348.7303,92.0804 L348.7303,125.3884 Z M204.2563,98.6524 C202.8873,102.1264 201.4923,105.4414 200.0923,108.5294 C187.3783,108.2374 174.6593,108.2374 161.9443,108.5284 C160.5453,105.4414 159.1503,102.1274 157.7823,98.6534 C147.9153,98.1774 138.6883,97.3884 130.9473,96.2854 C130.7583,97.0544 130.5713,97.8094 130.3833,98.5684 C124.7183,89.5424 121.4033,78.8904 121.2873,67.4644 C122.3693,68.9414 123.5873,70.4784 124.9403,72.0634 C129.9723,67.0224 136.4593,61.1534 143.9493,55.0164 C141.5443,45.5534 139.6503,36.6874 138.1103,28.6724 C136.9513,28.8084 135.8153,28.9504 134.7033,29.0994 C141.6073,20.6374 150.7873,14.1104 161.3133,10.4424 C160.5283,11.6884 159.7383,13.0264 158.9473,14.4464 C165.5093,18.2994 172.9453,22.7554 180.9993,28.0124 C189.0543,22.7554 196.4903,18.2994 203.0513,14.4464 C202.2603,13.0264 201.4713,11.6884 200.6853,10.4424 C211.2123,14.1114 220.3913,20.6374 227.2963,29.0994 C226.1943,28.9514 225.0693,28.8104 223.9213,28.6754 C222.3823,36.6904 220.4893,45.5554 218.0853,55.0174 C225.5733,61.1544 232.0553,67.0224 237.0833,72.0614 C238.4253,70.4864 239.6353,68.9594 240.7123,67.4904 C240.5913,78.8914 237.2853,89.5204 231.6383,98.5314 C231.4533,97.7834 231.2693,97.0394 231.0823,96.2814 C223.3453,97.3844 214.1213,98.1754 204.2563,98.6524 L204.2563,98.6524 Z M392.8933,135.7024 C382.6273,133.0104 372.3283,130.5224 362.0033,128.2264 L362.0033,81.8504 L357.0693,80.5414 C321.0553,70.9844 284.2573,64.3944 247.0843,60.8174 C245.7033,45.3564 239.0283,31.0094 227.9313,19.9124 C215.4043,7.3864 198.7373,0.4874 180.9993,0.4874 C163.2623,0.4874 146.5943,7.3864 134.0683,19.9124 C122.9713,31.0094 116.2963,45.3564 114.9153,60.8174 C77.7423,64.3944 40.9443,70.9844 4.9313,80.5414 L-0.0027,81.8504 L19.0303,90.6284 C50.5513,82.8204 82.6493,77.3144 115.0413,74.1424 C116.4753,87.3614 121.7963,99.7144 130.4483,109.8524 C111.1733,111.0274 91.9253,112.8774 72.7323,115.3954 L260.2573,201.8824 C275.6503,203.2694 291.0213,205.0594 306.3553,207.2564 C304.3793,210.6914 301.8803,215.0284 299.1363,219.8144 L327.0713,232.6974 C330.9113,224.9024 334.0063,217.4904 336.1343,212.0354 C339.9743,212.7194 343.8113,213.4354 347.6453,214.1714 C346.8373,223.0324 345.5793,231.8034 343.8923,240.4554 L356.4183,246.2324 L406.0003,227.3984 C401.6313,196.8324 397.2623,166.2674 392.8933,135.7024 L392.8933,135.7024 Z" id="Fill-1" fill="#005BAD" mask="url(#mask-2)"></path>
                </g>
                <path d="M391.6455,214.684 C390.8375,223.546 389.5795,232.316 387.8925,240.969 L371.0715,233.211 C374.9115,225.416 378.0055,218.003 380.1345,212.549 C383.9745,213.233 387.8115,213.949 391.6455,214.684" id="Fill-4" fill="#040000"></path>
                <path d="M343.1367,220.327 L304.2567,202.395 C319.6507,203.783 335.0217,205.572 350.3557,207.769 C348.3787,211.204 345.8797,215.541 343.1367,220.327" id="Fill-6" fill="#040000"></path>
                <path d="M174.4478,110.3656 C155.1738,111.5396 135.9248,113.3906 116.7318,115.9086 L63.0308,91.1416 C94.5518,83.3336 126.6488,77.8276 159.0418,74.6556 C160.4758,87.8736 165.7968,100.2266 174.4478,110.3656" id="Fill-8" fill="#9DE8FC"></path>
                <path d="M118.873,314.6395 C104.028,288.7165 97.721,265.9985 85.977,246.2805 C78.812,234.2475 73.175,221.0325 69.866,212.5485 C66.025,213.2325 62.189,213.9485 58.355,214.6835 C64.773,285.0815 99.546,349.7585 152.792,394.3335 C151.487,386.6875 149.983,378.3955 148.341,370.2525 C142.802,342.7785 133.718,340.5635 118.873,314.6395" id="Fill-10" fill="#40CEFF"></path>
                <path d="M23.4053,222.1151 L47.2823,233.9361 C46.4313,228.4281 45.7433,222.8821 45.2223,217.3051 C37.9373,218.8161 30.6643,220.4191 23.4053,222.1151" id="Fill-12" fill="#040100"></path>
                <path d="M391.6455,214.684 C387.8115,213.949 383.9745,213.233 380.1345,212.549 C378.0055,218.003 374.9115,225.416 371.0715,233.211 L387.8925,240.969 C389.5795,232.316 390.8375,223.546 391.6455,214.684" id="Fill-14" fill="#9DE8FC"></path>
                <path d="M350.356,207.7694 C335.022,205.5724 319.65,203.7834 304.256,202.3954 L343.137,220.3274 C345.879,215.5414 348.379,211.2044 350.356,207.7694" id="Fill-16" fill="#9DE8FC"></path>
                <path d="M275.5513,110.3656 C314.8023,112.7576 353.9453,117.9346 392.7303,125.9016 L392.7303,92.5936 C359.3623,84.0116 325.3263,78.0206 290.9583,74.6556 C289.5233,87.8736 284.2033,100.2266 275.5513,110.3656" id="Fill-18" fill="#9DE8FC"></path>
                <path d="M284.7119,68.0038 C283.6359,69.4718 282.4259,70.9998 281.0829,72.5748 C276.0559,67.5358 269.5729,61.6678 262.0859,55.5308 C264.4889,46.0688 266.3819,37.2038 267.9209,29.1888 C269.0689,29.3238 270.1939,29.4648 271.2959,29.6118 C264.3919,21.1508 255.2119,14.6238 244.6859,10.9558 C245.4709,12.2018 246.2609,13.5388 247.0519,14.9598 C240.4899,18.8128 233.0539,23.2688 224.9999,28.5248 C216.9449,23.2688 209.5089,18.8128 202.9479,14.9598 C203.7389,13.5388 204.5279,12.2018 205.3139,10.9558 C194.7869,14.6238 185.6079,21.1508 178.7029,29.6118 C179.8149,29.4628 180.9519,29.3208 182.1099,29.1848 C183.6499,37.1998 185.5439,46.0668 187.9489,55.5298 C180.4589,61.6668 173.9719,67.5358 168.9409,72.5758 C167.5869,70.9908 166.3699,69.4548 165.2869,67.9768 C165.4029,79.4038 168.7189,90.0548 174.3829,99.0808 C174.5709,98.3228 174.7579,97.5668 174.9479,96.7988 C182.6889,97.9018 191.9149,98.6908 201.7819,99.1668 C203.1499,102.6398 204.5449,105.9538 205.9439,109.0428 C218.6589,108.7508 231.3779,108.7508 244.0919,109.0428 C245.4919,105.9538 246.8879,102.6388 248.2559,99.1658 C258.1219,98.6888 267.3449,97.8978 275.0819,96.7948 C275.2689,97.5518 275.4539,98.2968 275.6389,99.0448 C281.2849,90.0338 284.5909,79.4048 284.7119,68.0038" id="Fill-20" fill="#040000"></path>
                <path d="M331.127,314.6395 C316.282,340.5635 307.198,342.7785 301.659,370.2525 C300.017,378.3945 298.513,386.6885 297.207,394.3335 C343.751,355.3695 376.179,301.0465 387.892,240.9685 L371.072,233.2105 C368.94,237.5385 366.581,241.9845 364.023,246.2805 C352.279,265.9985 345.972,288.7165 331.127,314.6395" id="Fill-22" fill="#40CEFF"></path>
                <path d="M99.644,207.7694 C107.755,221.8634 124.631,251.0904 131.281,264.5664 C139.701,281.6264 164.158,302.5394 164.158,302.5394 C183.03,318.6534 174.755,311.1044 186.514,317.4914 C192.692,320.8474 198.691,319.8734 202.997,318.1954 C203.748,315.0104 203.678,309.9464 203.378,305.3704 C199.459,301.2344 198.822,297.1734 198.57,293.2974 C197.187,293.1674 195.845,292.6234 194.836,291.6754 C193.367,290.2954 192.735,288.2644 192.232,286.3134 C191.825,284.7314 191.463,283.1384 191.102,281.5454 C190.738,279.9394 190.374,278.3334 190.01,276.7274 C189.862,276.0734 189.714,275.3884 189.884,274.7394 C190.199,273.5414 191.55,272.8484 192.787,272.9034 C193.596,272.9384 194.359,273.2224 195.082,273.6034 C193.51,264.5954 192.692,252.8894 196.675,241.2784 C203.498,221.3894 225,221.5344 225,221.5344 C225,221.5344 246.501,221.3894 253.325,241.2784 C257.308,252.8894 256.49,264.5954 254.918,273.6034 C255.641,273.2224 256.404,272.9384 257.213,272.9034 C258.45,272.8484 259.801,273.5414 260.116,274.7394 C260.286,275.3884 260.138,276.0734 259.99,276.7274 C259.625,278.3334 259.262,279.9394 258.897,281.5454 C258.537,283.1384 258.175,284.7314 257.768,286.3134 C257.265,288.2644 256.633,290.2954 255.164,291.6754 C254.155,292.6234 252.812,293.1674 251.43,293.2974 C251.178,297.1734 250.54,301.2344 246.621,305.3704 C246.322,309.9464 246.252,315.0104 247.003,318.1954 C251.309,319.8734 257.308,320.8474 263.486,317.4914 C275.245,311.1044 266.97,318.6534 285.842,302.5394 C285.842,302.5394 310.299,281.6264 318.719,264.5664 C323.748,254.3744 334.624,235.1774 343.137,220.3274 L304.256,202.3954 C236.115,196.2534 167.522,198.0424 99.644,207.7694" id="Fill-24" fill="#40CEFF"></path>
                <path d="M57.2695,125.9012 C77.0085,121.8472 96.8405,118.5192 116.7315,115.9082 L63.0305,91.1412 C61.1085,91.6172 59.1875,92.1002 57.2695,92.5932 L57.2695,125.9012 Z" id="Fill-26" fill="#40CEFF"></path>
                <path d="M58.355,214.684 C62.189,213.949 66.025,213.233 69.866,212.549 C73.175,221.032 78.813,234.248 85.978,246.28 C97.721,265.999 104.028,288.717 118.873,314.64 C133.718,340.563 142.802,342.778 148.341,370.253 C149.983,378.395 151.487,386.687 152.793,394.334 C99.546,349.759 64.773,285.082 58.355,214.684 L58.355,214.684 Z M23.405,222.115 C30.665,220.419 37.938,218.816 45.222,217.306 C45.744,222.882 46.431,228.429 47.283,233.936 L23.405,222.115 Z M297.207,394.334 C298.513,386.688 300.017,378.394 301.659,370.253 C307.198,342.778 316.282,340.563 331.127,314.64 C345.972,288.717 352.279,265.999 364.022,246.28 C366.581,241.984 368.939,237.539 371.072,233.211 L343.137,220.327 C334.625,235.178 323.749,254.375 318.719,264.566 C310.299,281.627 285.842,302.539 285.842,302.539 C266.97,318.653 275.245,311.104 263.486,317.491 C257.308,320.848 251.309,319.874 247.003,318.195 C246.252,315.011 246.322,309.946 246.621,305.37 C250.541,301.234 251.178,297.174 251.43,293.298 C252.813,293.168 254.155,292.624 255.164,291.676 C256.633,290.296 257.265,288.265 257.768,286.313 C258.175,284.731 258.537,283.139 258.897,281.546 C259.262,279.939 259.626,278.334 259.99,276.727 C260.138,276.073 260.286,275.389 260.116,274.739 C259.801,273.542 258.45,272.849 257.213,272.903 C256.404,272.938 255.641,273.223 254.918,273.603 C256.49,264.596 257.308,252.89 253.325,241.278 C246.501,221.39 225,221.535 225,221.535 C225,221.535 203.499,221.39 196.675,241.278 C192.692,252.89 193.51,264.596 195.082,273.603 C194.359,273.223 193.596,272.938 192.787,272.903 C191.55,272.849 190.199,273.542 189.884,274.739 C189.714,275.389 189.862,276.073 190.01,276.727 C190.375,278.334 190.738,279.939 191.103,281.546 C191.463,283.139 191.825,284.731 192.232,286.313 C192.735,288.265 193.367,290.296 194.836,291.676 C195.845,292.624 197.188,293.168 198.57,293.298 C198.822,297.174 199.459,301.234 203.378,305.37 C203.678,309.946 203.748,315.011 202.997,318.195 C198.691,319.874 192.692,320.848 186.514,317.491 C174.755,311.104 183.03,318.653 164.158,302.539 C164.158,302.539 139.701,281.627 131.281,264.566 C124.631,251.091 107.755,221.863 99.644,207.769 C167.522,198.043 236.115,196.254 304.256,202.395 L116.732,115.909 C96.841,118.519 77.009,121.847 57.27,125.901 L57.27,92.594 C59.188,92.1 61.108,91.618 63.03,91.142 L43.997,82.364 L43.997,128.74 C33.671,131.035 23.373,133.523 13.107,136.215 C8.738,166.781 4.369,197.346 0,227.911 L49.582,246.745 C57.106,283.773 72.144,318.888 94.153,350.285 C126.218,396.026 170.645,430.716 222.629,450.605 L225,451.513 L227.372,450.605 C279.355,430.716 323.782,396.026 355.847,350.285 C377.856,318.888 392.894,283.773 400.418,246.745 L387.892,240.969 C376.179,301.047 343.751,355.37 297.207,394.334 L297.207,394.334 Z" id="Fill-28" fill="#003091"></path>
                <path d="M250.2407,59.5023 C247.3857,69.3533 244.1157,79.6003 240.7227,89.1653 C230.4067,89.4173 219.5937,89.4173 209.2757,89.1653 C205.8837,79.6003 202.6137,69.3533 199.7587,59.5023 C207.9107,53.2963 216.6397,46.9393 224.9997,41.0933 C233.3597,46.9393 242.0887,53.2963 250.2407,59.5023 M275.6387,99.0443 C281.2847,90.0333 284.5917,79.4043 284.7117,68.0033 C283.6357,69.4723 282.4257,70.9993 281.0827,72.5743 C276.0557,67.5353 269.5737,61.6673 262.0857,55.5303 C264.4897,46.0683 266.3817,37.2033 267.9207,29.1893 C269.0687,29.3233 270.1947,29.4643 271.2957,29.6123 C264.3917,21.1513 255.2127,14.6243 244.6857,10.9553 C245.4707,12.2013 246.2607,13.5393 247.0517,14.9603 C240.4907,18.8123 233.0537,23.2683 224.9997,28.5253 C216.9457,23.2683 209.5097,18.8123 202.9477,14.9603 C203.7387,13.5393 204.5287,12.2013 205.3137,10.9553 C194.7867,14.6233 185.6077,21.1503 178.7027,29.6123 C179.8147,29.4633 180.9517,29.3213 182.1107,29.1853 C183.6497,37.2003 185.5437,46.0663 187.9487,55.5293 C180.4587,61.6663 173.9717,67.5363 168.9407,72.5763 C167.5877,70.9913 166.3697,69.4543 165.2867,67.9773 C165.4027,79.4033 168.7187,90.0553 174.3837,99.0813 C174.5707,98.3223 174.7577,97.5673 174.9477,96.7983 C182.6887,97.9013 191.9147,98.6913 201.7827,99.1673 C203.1497,102.6403 204.5457,105.9543 205.9447,109.0423 C218.6587,108.7503 231.3777,108.7513 244.0927,109.0433 C245.4917,105.9543 246.8877,102.6393 248.2557,99.1653 C258.1217,98.6883 267.3447,97.8983 275.0817,96.7943 C275.2687,97.5523 275.4537,98.2963 275.6387,99.0443" id="Fill-30" fill="#FFCE00"></path>
                <path d="M209.2759,89.1654 C205.8839,79.6004 202.6139,69.3534 199.7579,59.5024 C207.9109,53.2964 216.6399,46.9394 224.9999,41.0934 C233.3589,46.9394 242.0889,53.2964 250.2409,59.5024 C247.3859,69.3534 244.1149,79.6004 240.7229,89.1654 C230.4059,89.4164 219.5929,89.4164 209.2759,89.1654" id="Fill-32" fill="#005BAD"></path>
                <path d="M70.5933,149.5839 C70.1423,149.1179 69.6913,148.6519 69.2413,148.1869 C66.0673,148.7809 62.8943,149.3929 59.7243,150.0219 C58.9773,156.7929 58.2293,163.5629 57.4813,170.3339 C60.6943,169.6949 63.9093,169.0749 67.1273,168.4729 C67.7003,167.8169 68.2743,167.1609 68.8463,166.5049 C69.4293,160.8649 70.0113,155.2239 70.5933,149.5839 M78.3033,144.8939 C77.5293,152.7679 76.7543,160.6419 75.9793,168.5149 C73.7913,171.0049 71.5943,173.5039 69.3913,176.0119 C65.1183,176.7939 60.8493,177.6099 56.5843,178.4579 C55.8363,185.2279 55.0883,191.9979 54.3403,198.7689 C51.8083,199.2719 49.2783,199.7859 46.7493,200.3119 L53.3103,143.3849 C59.9043,142.0139 66.5093,140.7229 73.1223,139.5109 C74.8403,141.2999 76.5673,143.0939 78.3033,144.8939" id="Fill-34" fill="#FFFFFF"></path>
                <path d="M99.0801,163.1176 C99.5951,156.9376 100.1111,150.7576 100.6261,144.5776 C100.1621,144.0956 99.6981,143.6136 99.2351,143.1316 C96.5591,143.5336 93.8831,143.9486 91.2101,144.3766 C90.6501,145.0166 90.0891,145.6576 89.5281,146.2996 L87.8431,164.8606 C91.5861,164.2546 95.3321,163.6736 99.0801,163.1176 M108.2961,140.1656 C106.9831,156.8836 105.6701,173.6006 104.3581,190.3186 C101.8101,190.6736 99.2641,191.0396 96.7191,191.4166 C97.2811,184.6796 97.8431,177.9416 98.4051,171.2026 C94.6371,171.7626 90.8721,172.3466 87.1081,172.9546 C86.4961,179.7006 85.8841,186.4466 85.2711,193.1926 C82.7291,193.6036 80.1881,194.0266 77.6491,194.4606 C79.2521,177.6986 80.8551,160.9356 82.4581,144.1726 C84.6111,141.6986 86.7561,139.2326 88.8941,136.7756 C93.5801,136.0086 98.2701,135.2816 102.9641,134.5936 C104.7321,136.4456 106.5091,138.3026 108.2961,140.1656" id="Fill-36" fill="#FFFFFF"></path>
                <path d="M108.6084,189.7367 C108.8364,186.7267 109.0644,183.7157 109.2924,180.7067 C116.4734,166.7317 123.4994,152.8457 130.3704,139.0427 C126.8074,139.4437 123.2474,139.8667 119.6884,140.3137 C119.4974,143.0047 119.3064,145.6947 119.1164,148.3847 C116.6324,148.6967 114.1504,149.0187 111.6684,149.3527 C112.0764,143.9677 112.4844,138.5837 112.8924,133.1987 C121.4844,132.0447 130.0874,131.0237 138.6984,130.1357 C138.5234,133.1397 138.3474,136.1427 138.1714,139.1467 C131.3624,152.8867 124.3974,166.7077 117.2774,180.6157 C120.9334,180.1587 124.5904,179.7257 128.2504,179.3157 C128.4204,176.6277 128.5914,173.9397 128.7614,171.2517 C131.2884,170.9677 133.8154,170.6957 136.3424,170.4357 C136.0284,175.8087 135.7144,181.1827 135.4004,186.5557 C126.4594,187.4777 117.5284,188.5377 108.6084,189.7367" id="Fill-38" fill="#FFFFFF"></path>
                <path d="M139.7227,186.121 C139.8897,183.118 140.0567,180.115 140.2237,177.112 C147.1547,163.391 153.9297,149.752 160.5467,136.192 C156.9757,136.465 153.4077,136.76 149.8397,137.079 C149.7037,139.763 149.5677,142.448 149.4317,145.133 C146.9417,145.355 144.4527,145.588 141.9647,145.832 C142.2637,140.46 142.5627,135.088 142.8617,129.717 C151.4757,128.871 160.0987,128.16 168.7267,127.581 C168.6117,130.579 168.4977,133.578 168.3837,136.577 C161.8287,150.077 155.1177,163.652 148.2487,177.309 C151.9137,176.984 155.5797,176.682 159.2467,176.404 C159.3627,173.721 159.4777,171.038 159.5947,168.354 C162.1257,168.163 164.6577,167.981 167.1907,167.811 C166.9857,173.175 166.7807,178.539 166.5767,183.903 C157.6187,184.504 148.6657,185.244 139.7227,186.121" id="Fill-40" fill="#FFFFFF"></path>
                <path d="M170.9062,183.6239 C171.5702,164.8529 172.2342,146.0819 172.8972,127.3109 C175.3632,127.1589 177.8292,127.0169 180.2952,126.8849 C179.7262,145.6499 179.1562,164.4159 178.5872,183.1809 C176.0262,183.3169 173.4662,183.4649 170.9062,183.6239" id="Fill-42" fill="#FFFFFF"></path>
                <path d="M216.73,173.9501 C217.261,173.3901 217.792,172.8301 218.322,172.2721 C218.376,159.9881 218.43,147.7041 218.484,135.4211 C217.972,134.8701 217.46,134.3191 216.949,133.7691 C213.74,133.8001 210.531,133.8491 207.322,133.9161 C207.162,147.3111 207.002,160.7051 206.842,174.1001 C210.138,174.0321 213.434,173.9811 216.73,173.9501 M199.059,182.3321 C199.377,163.5761 199.696,144.8221 200.014,126.0671 C206.695,125.8681 213.377,125.7491 220.061,125.7101 C222.011,127.8231 223.969,129.9421 225.937,132.0681 C225.945,146.5701 225.955,161.0731 225.964,175.5751 C223.941,177.6971 221.911,179.8251 219.872,181.9611 C212.934,182.0021 205.996,182.1251 199.059,182.3321" id="Fill-44" fill="#FFFFFF"></path>
                <path d="M230.2437,181.9618 C230.1797,163.2118 230.1157,144.4618 230.0507,125.7108 C232.5197,125.7258 234.9877,125.7518 237.4567,125.7878 C237.6157,144.5388 237.7737,163.2908 237.9327,182.0418 C235.3697,182.0038 232.8067,181.9768 230.2437,181.9618" id="Fill-46" fill="#FFFFFF"></path>
                <path d="M264.7983,134.6683 C264.9423,140.0293 265.0873,145.3903 265.2313,150.7503 C268.9913,150.9273 272.7523,151.1293 276.5113,151.3563 C276.6033,154.0383 276.6953,156.7193 276.7883,159.4003 C273.0083,159.1723 269.2283,158.9693 265.4463,158.7913 C265.6633,166.8323 265.8793,174.8733 266.0953,182.9143 C263.5343,182.7933 260.9723,182.6843 258.4103,182.5853 C258.0003,163.8273 257.5903,145.0693 257.1803,126.3123 C264.5833,126.5953 271.9833,126.9763 279.3793,127.4563 C279.4783,130.1373 279.5773,132.8193 279.6763,135.5013 C274.7183,135.1803 269.7593,134.9023 264.7983,134.6683" id="Fill-48" fill="#FFFFFF"></path>
                <path d="M303.4692,157.4213 L302.5052,138.9513 C301.9632,138.3483 301.4212,137.7453 300.8802,137.1433 C298.1922,136.9003 295.5032,136.6713 292.8132,136.4553 C292.3252,136.9693 291.8382,137.4843 291.3492,138.0003 C291.6242,144.1523 291.8992,150.3053 292.1742,156.4583 C295.9402,156.7543 299.7052,157.0753 303.4692,157.4213 M309.7472,136.3293 C310.7002,153.0043 311.6542,169.6783 312.6072,186.3523 C310.0522,186.0953 307.4962,185.8483 304.9402,185.6133 C304.5902,178.9013 304.2402,172.1883 303.8892,165.4763 C300.1062,165.1283 296.3202,164.8053 292.5342,164.5073 C292.8342,171.2163 293.1342,177.9243 293.4332,184.6323 C290.8752,184.4313 288.3172,184.2413 285.7582,184.0633 C285.0962,167.4133 284.4362,150.7643 283.7752,134.1143 C285.6532,132.1253 287.5232,130.1413 289.3842,128.1643 C294.1002,128.5263 298.8152,128.9283 303.5272,129.3703 C305.5932,131.6823 307.6662,134.0023 309.7472,136.3293" id="Fill-50" fill="#FFFFFF"></path>
                <path d="M343.6553,190.0438 C341.5323,189.7528 339.4083,189.4698 337.2833,189.1938 C332.2473,177.8788 327.2973,166.6058 322.4353,155.3738 C323.1333,166.1278 323.8303,176.8828 324.5293,187.6368 C321.9763,187.3438 319.4233,187.0628 316.8683,186.7928 C315.7413,167.9828 314.6143,149.1728 313.4873,130.3638 C315.5373,130.5808 317.5863,130.8048 319.6353,131.0368 C324.4223,142.2538 329.2963,153.5108 334.2573,164.8108 C333.4793,154.0468 332.7003,143.2828 331.9223,132.5188 C334.3783,132.8338 336.8333,133.1588 339.2873,133.4948 C340.7433,152.3448 342.1993,171.1938 343.6553,190.0438" id="Fill-52" fill="#FFFFFF"></path>
                <path d="M369.2075,146.1093 C366.2565,145.6003 363.3035,145.1063 360.3495,144.6273 C361.8185,160.8173 363.2885,177.0073 364.7585,193.1973 C362.2165,192.7853 359.6735,192.3853 357.1285,191.9963 L352.9595,143.4643 C350.0025,143.0123 347.0445,142.5763 344.0845,142.1553 C343.8695,139.4623 343.6535,136.7683 343.4385,134.0743 C351.7785,135.2593 360.1085,136.5703 368.4245,138.0063 C368.6855,140.7073 368.9465,143.4083 369.2075,146.1093" id="Fill-54" fill="#FFFFFF"></path>
                <path d="M392.5195,170.3339 C391.8335,164.1249 391.1475,157.9149 390.4615,151.7049 C389.8915,151.0429 389.3215,150.3819 388.7525,149.7209 C386.0895,149.1969 383.4245,148.6859 380.7585,148.1869 C380.3095,148.6519 379.8585,149.1179 379.4065,149.5839 L381.3275,168.1859 C385.0615,168.8769 388.7915,169.5929 392.5195,170.3339 M397.4335,149.8329 C399.3725,166.6589 401.3115,183.4849 403.2505,200.3119 C400.7225,199.7859 398.1925,199.2709 395.6605,198.7689 C394.9135,191.9979 394.1655,185.2279 393.4165,178.4579 C389.6695,177.7129 385.9185,176.9929 382.1645,176.2979 C382.8625,183.0589 383.5605,189.8189 384.2585,196.5799 C381.7225,196.1109 379.1855,195.6529 376.6465,195.2059 C374.9975,178.4349 373.3475,161.6649 371.6975,144.8939 C373.4335,143.0939 375.1605,141.2999 376.8785,139.5119 C381.5545,140.3679 386.2265,141.2649 390.8935,142.2009 C393.0655,144.7359 395.2455,147.2799 397.4335,149.8329" id="Fill-56" fill="#FFFFFF"></path>
                <path d="M27.3999,183.2499 C25.2749,184.8529 23.1479,186.4629 21.0159,188.0829 C21.7149,185.5779 22.4119,183.0739 23.1079,180.5709 C21.7389,179.2469 20.3769,177.9259 19.0199,176.6079 C21.2619,175.7139 23.5039,174.8299 25.7449,173.9539 C27.0139,171.5249 28.2789,169.0999 29.5409,166.6769 C30.2349,168.6399 30.9349,170.6039 31.6379,172.5689 C33.7909,172.4129 35.9469,172.2639 38.1049,172.1249 C36.3019,174.1849 34.4949,176.2499 32.6819,178.3219 C32.7549,180.6449 32.8309,182.9669 32.9069,185.2889 C31.0659,184.6029 29.2299,183.9239 27.3999,183.2499" id="Fill-58" fill="#FFCE00"></path>
            </g>
        </g>
    </g>
</svg>